<svg xmlns="http://www.w3.org/2000/svg" xmlns:v="https://vecta.io/nano" width="131" height="45" fill="none">
    <g clip-path="url(#A)">
        <path d="M62.109 18.202h-1.541v-1.315h-4.983V10.82h1.901v4.551h2.055v-4.55h1.901v4.652h.668v2.73zm.822-7.382h5.086v1.315h-3.185v.961h2.928v1.213h-2.928v1.214h3.288v1.365h-5.137V10.82h-.051zm6.216 0h1.901v2.124h2.055V10.82h1.901v6.017h-1.901V14.41h-2.055v2.427h-1.901V10.82zm6.679 0h5.754v1.517h-1.952v4.551h-1.901v-4.551h-1.952V10.82h.051zm6.576 0h3.134c.668 0 1.181.152 1.541.506.36.303.514.758.514 1.365s-.206 1.062-.565 1.416-.925.506-1.695.506h-1.028v2.225h-1.901V10.82zm1.901 2.579h.462c.36 0 .617-.051.771-.202.154-.101.205-.303.205-.455 0-.202-.051-.354-.205-.506-.103-.152-.36-.202-.719-.202h-.514v1.365z"
              fill="#f24e5e"/>
        <path d="M55.585 23.157c0-1.011.257-1.77.822-2.326s1.336-.809 2.312-.809c1.027 0 1.798.253 2.363.809s.822 1.315.822 2.275c0 .708-.103 1.264-.36 1.719s-.565.809-1.027 1.062-1.027.354-1.695.354-1.284-.101-1.695-.303c-.462-.202-.822-.556-1.079-1.011-.308-.455-.462-1.062-.462-1.77zm1.901 0c0 .607.103 1.062.36 1.315.206.253.565.404.925.404.411 0 .719-.152.925-.404s.36-.708.36-1.416c0-.556-.103-.961-.36-1.264-.257-.253-.565-.405-.925-.405s-.668.152-.925.405c-.257.303-.36.758-.36 1.365zm11.97 4.348h-1.541v-1.315h-4.983v-6.067h1.901v4.551h2.055v-4.55h1.901v4.652h.668v2.73zm.925-7.382h1.901v6.017H70.38v-6.017zm3.288 0h1.901v2.124h2.055v-2.124h1.901v6.017h-1.901v-2.427h-2.055v2.427h-1.901v-6.017zm9.709 2.124c.154-.708.514-1.264 1.028-1.669.514-.354 1.181-.556 2.004-.556 1.027 0 1.798.253 2.363.809s.822 1.315.822 2.275c0 1.011-.257 1.82-.822 2.326-.565.556-1.284.809-2.312.809s-1.798-.253-2.312-.708c-.514-.506-.822-1.112-.873-1.82h-.668v2.427h-1.901v-6.017h1.901v2.124h.771zm3.082 2.629c.411 0 .719-.152.976-.404.206-.253.308-.708.308-1.416 0-1.112-.411-1.669-1.284-1.669-.822 0-1.284.556-1.284 1.719 0 1.213.411 1.77 1.284 1.77zm4.213-4.753h3.545c.565 0 1.027.152 1.336.455s.462.657.462 1.062c0 .354-.103.657-.36.91-.154.152-.36.303-.668.404.462.101.771.303.976.556s.308.556.308.961c0 .303-.051.607-.205.86a1.76 1.76 0 0 1-.617.607c-.154.101-.411.152-.719.202l-.822.101h-3.288v-6.118h.051zm1.901 2.376h.822c.308 0 .514-.051.616-.152s.154-.253.154-.455c0-.152-.051-.303-.154-.404s-.308-.152-.616-.152h-.822V22.5zm0 2.376h.976c.308 0 .565-.051.668-.152.154-.101.206-.253.206-.455s-.051-.303-.206-.455c-.154-.101-.36-.152-.719-.152h-.976v1.213h.051zm8.477.303h-2.158l-.308 1.011h-1.952l2.312-6.017h2.055l2.312 6.017h-2.003l-.257-1.011zm-.36-1.315l-.668-2.174-.668 2.174h1.335zm3.288-3.742h1.901v2.124h2.055v-2.124h1.9v6.017h-1.9v-2.427h-2.055v2.427h-1.901v-6.017zm7.089 0h1.901v2.124h2.055v-2.124h1.901v6.017h-1.901v-2.427h-2.055v2.427h-1.901v-6.017zm10.635 6.067v-2.427h-.155c-.154 0-.308.051-.462.152-.103.051-.205.202-.36.455l-1.027 1.871h-2.158l.925-1.77c.051-.101.154-.202.257-.354l.308-.303c.103-.051.257-.152.514-.202-.257-.051-.514-.152-.668-.253-.257-.152-.462-.354-.616-.607s-.206-.556-.206-.86c0-.404.103-.708.308-.961s.463-.455.771-.556.771-.152 1.336-.152h3.133v6.017h-1.9v-.051zm0-4.854h-.822c-.36 0-.566.05-.72.152a.64.64 0 0 0-.205.455c0 .152.051.253.103.354.102.101.205.152.308.202l.514.101h.822v-1.264z"
              fill="#6d6e71"/>
        <path d="M18.957 10.719L0 1.517v6.219l18.957 9.253s11.096-9.303 31.44-9.303V1.517c-20.344 0-31.44 9.202-31.44 9.202z"
              fill="#f24e5e"/>
        <g fill="#6d6e71">
            <path d="M22.142 34.028s9.863-7.787 28.306-7.787v-1.517c-18.443 0-28.306 7.736-28.306 7.736v1.567zm-3.134 4.753l-12.689-6.32V20.124l12.638 6.169s11.148-9.354 31.44-9.354V10.77c-20.292 0-31.44 9.303-31.44 9.303L.051 10.77v24.775L19.059 45s11.045-9.455 31.389-9.455v-6.168c-20.344 0-31.44 9.405-31.44 9.405zm31.44-18.708c-18.443 0-28.306 7.736-28.306 7.736v1.567s9.915-7.736 28.306-7.736v-1.567z"/>
        </g>
        <path d="M55.585 1.466h2.055l.822 2.478.822-2.478h1.901l-2.004 4.652-.411.86c-.103.202-.308.354-.565.455s-.565.202-.976.202c-.206 0-.617-.051-1.13-.101V6.27c.308.051.565.051.719.051.411 0 .719-.152.822-.506l-2.055-4.348zm11.918 6.067h-2.106l-.719-1.567c-.154-.354-.308-.607-.411-.708s-.257-.152-.411-.152v2.376h-1.901V1.466h1.901v2.326c.154 0 .308-.051.36-.152.103-.101.257-.405.411-.91.154-.354.308-.657.411-.809.154-.152.36-.303.719-.354.308-.051.822-.101 1.541-.101V2.73h-.103c-.308 0-.565.051-.719.202-.154.101-.308.303-.36.607-.103.253-.206.455-.308.607s-.257.253-.462.303a2.16 2.16 0 0 1 .719.455c.206.202.411.556.668 1.011l.771 1.618zm.668-6.067h3.134c.668 0 1.182.152 1.541.506.36.303.514.758.514 1.365s-.206 1.062-.565 1.416-.925.506-1.695.506h-1.027v2.225h-1.901V1.466zm1.901 2.579h.462c.36 0 .617-.051.771-.202.154-.101.206-.303.206-.455 0-.202-.051-.354-.206-.506-.103-.152-.36-.202-.719-.202h-.514v1.365zm8.014 2.478h-2.158l-.308 1.011h-1.952l2.363-6.067h2.055l2.312 6.017h-2.004l-.308-.961zm-.411-1.315l-.668-2.174-.668 2.174h1.336zM80.604.051h1.079v1.011h-1.079V.051zm.462 1.416h1.901v6.017h-1.901V1.466zM82.35.051h1.079v1.011H82.35V.051zm1.952 1.416h1.901V3.59h2.055V1.466h1.901v6.017h-1.901V5.056h-2.055v2.427h-1.901V1.466zm11.199 3.59l1.644.506a3.49 3.49 0 0 1-.514 1.163c-.257.303-.514.556-.873.708s-.822.253-1.336.253c-.668 0-1.233-.101-1.644-.303s-.771-.506-1.079-1.011-.462-1.112-.462-1.82c0-1.011.257-1.77.822-2.326.514-.556 1.284-.809 2.26-.809.771 0 1.387.152 1.798.455.462.303.771.758.976 1.416l-1.644.354c-.051-.202-.103-.303-.206-.405-.103-.152-.257-.253-.411-.354s-.308-.101-.514-.101c-.411 0-.771.152-.976.506-.154.253-.257.657-.257 1.213 0 .657.103 1.112.308 1.365s.514.354.873.354.616-.101.822-.303.308-.455.411-.86zm4.47-1.264h1.027c.925 0 1.593.152 2.055.506.463.303.668.809.668 1.517 0 .556-.205.961-.616 1.264s-.976.455-1.747.455h-3.236V1.466h1.9v2.326h-.051zm0 2.427h.976c.617 0 .873-.202.873-.657 0-.354-.308-.556-.873-.556h-.976v1.213zm10.274 1.315h-2.106l-.719-1.567c-.154-.354-.308-.607-.411-.708a.59.59 0 0 0-.411-.152v2.376h-1.901V1.466h1.901v2.326c.154 0 .308-.051.36-.152.102-.101.256-.405.411-.91.154-.354.308-.657.411-.809a1.19 1.19 0 0 1 .719-.354c.308-.051.822-.101 1.541-.101V2.73h-.103c-.308 0-.565.051-.719.202-.154.101-.308.303-.36.607-.102.253-.205.455-.308.607a.75.75 0 0 1-.462.303c.257.101.514.253.719.455s.411.556.668 1.011l.77 1.618zm6.525-6.067v6.017h-1.798V4.197l-2.312 3.337h-1.798V1.466h1.798v3.337l2.312-3.337h1.798zm7.141 0v6.017h-1.798V4.197l-2.312 3.337h-1.798V1.466h1.798v3.337l2.312-3.337h1.798zM122.524 0c-.052.354-.206.607-.514.86-.257.202-.617.303-.976.303s-.72-.101-.976-.303a1.36 1.36 0 0 1-.514-.86h.719c.103.354.36.506.771.506s.668-.152.822-.506h.668 0z"
              fill="#f24e5e"/>
        <path d="M59.746 35.494v-2.427h-.154c-.154 0-.308.051-.462.152-.103.051-.206.202-.36.455l-1.028 1.871h-2.158l.925-1.77c.051-.101.154-.202.257-.354l.308-.303c.103-.051.257-.152.514-.202-.257-.051-.514-.152-.668-.253-.257-.152-.462-.354-.617-.607s-.206-.556-.206-.859c0-.404.103-.708.308-.961s.462-.455.771-.556.771-.152 1.336-.152h3.134v6.017h-1.901v-.051zm0-4.854h-.822c-.36 0-.565.05-.719.152-.103.101-.206.253-.206.455 0 .152.051.253.103.354.103.101.206.152.308.202l.514.101h.822v-1.264zm8.682 4.854h-2.106l-.719-1.567c-.154-.354-.308-.607-.411-.708a.59.59 0 0 0-.411-.152v2.376H62.88v-6.017h1.901v2.326c.154 0 .308-.05.36-.152.103-.101.257-.404.411-.91.154-.354.308-.657.411-.809.154-.152.36-.303.719-.354a9.9 9.9 0 0 1 1.541-.101v1.264h-.103c-.308 0-.565.051-.719.202-.154.101-.308.303-.36.607-.103.253-.206.455-.308.607s-.257.253-.462.303a2.16 2.16 0 0 1 .719.455c.206.202.411.556.668 1.011l.771 1.618zm.462-3.034c0-1.011.257-1.77.822-2.326s1.336-.809 2.312-.809c1.027 0 1.798.253 2.363.809s.822 1.315.822 2.275c0 .708-.103 1.264-.36 1.719s-.565.809-1.028 1.062-1.027.354-1.695.354-1.284-.101-1.695-.303c-.462-.202-.822-.556-1.079-1.011-.308-.455-.462-1.062-.462-1.77zm1.901 0c0 .607.103 1.062.36 1.315.206.253.565.404.925.404.411 0 .719-.152.925-.404s.36-.708.36-1.416c0-.556-.103-.961-.36-1.264-.257-.253-.565-.405-.925-.405s-.668.152-.925.405c-.257.303-.36.758-.36 1.365zm9.504.556l1.644.506c-.103.455-.308.859-.514 1.163-.257.303-.514.556-.873.708s-.822.253-1.336.253c-.668 0-1.233-.101-1.644-.303s-.771-.506-1.079-1.011c-.308-.455-.462-1.112-.462-1.82 0-1.011.257-1.77.822-2.326.514-.556 1.284-.809 2.26-.809.771 0 1.387.152 1.798.455.462.303.771.758.976 1.416l-1.644.354c-.051-.202-.103-.303-.206-.404-.103-.152-.257-.253-.411-.354s-.308-.101-.514-.101c-.411 0-.771.152-.976.506-.154.253-.257.657-.257 1.214 0 .657.103 1.112.308 1.365s.514.354.873.354.617-.101.822-.303.36-.506.411-.859zm2.158-3.59h5.754v1.517h-1.952v4.551h-1.901v-4.551h-1.952v-1.517h.051zm6.679 0h1.901v6.017h-1.901v-6.017zm5.856 3.034c0-1.011.257-1.77.822-2.326s1.336-.809 2.312-.809c1.027 0 1.798.253 2.363.809s.822 1.315.822 2.275c0 .708-.103 1.264-.36 1.719s-.565.809-1.027 1.062-1.028.354-1.695.354-1.284-.101-1.695-.303c-.462-.202-.822-.556-1.079-1.011-.308-.455-.462-1.062-.462-1.77zm1.901 0c0 .607.103 1.062.36 1.315.206.253.565.404.925.404.411 0 .719-.152.925-.404s.36-.708.36-1.416c0-.556-.103-.961-.36-1.264-.257-.253-.565-.405-.925-.405s-.668.152-.925.405c-.257.303-.36.758-.36 1.365zm9.555.556l1.644.506c-.103.455-.308.859-.514 1.163-.257.303-.514.556-.873.708s-.822.253-1.336.253c-.668 0-1.233-.101-1.644-.303s-.77-.506-1.079-1.011c-.308-.455-.462-1.112-.462-1.82 0-1.011.257-1.77.822-2.326.514-.556 1.284-.809 2.26-.809.771 0 1.387.152 1.798.455.463.303.771.758.976 1.416l-1.643.354c-.052-.202-.103-.303-.206-.404-.103-.152-.257-.253-.411-.354s-.308-.101-.514-.101c-.411 0-.77.152-.976.506-.154.253-.257.657-.257 1.214 0 .657.103 1.112.309 1.365s.513.354.873.354.616-.101.822-.303c.154-.202.308-.506.411-.859zm2.569-3.59h3.544c.565 0 1.028.152 1.336.455s.462.657.462 1.062c0 .354-.102.657-.359.91a1.66 1.66 0 0 1-.668.404c.462.101.77.303.976.556s.308.556.308.961c0 .303-.051.607-.205.86s-.36.455-.617.607c-.154.101-.411.152-.719.202l-.822.101h-3.288v-6.118h.052zm1.9 2.376h.822c.309 0 .514-.051.617-.152s.154-.253.154-.455c0-.152-.052-.303-.154-.404s-.308-.152-.617-.152h-.822v1.163zm0 2.376h.976c.309 0 .565-.051.668-.152.154-.101.206-.253.206-.455s-.052-.303-.206-.455c-.154-.101-.359-.152-.719-.152h-.976v1.214h.051zm4.829-4.753h1.901v6.017h-1.901v-6.017zm2.826 0h5.754v1.517h-1.953v4.551h-1.9v-4.551h-1.953v-1.517h.052zm12.432 0v6.017h-1.798v-3.337l-2.312 3.337h-1.798v-6.017h1.798v3.337l2.312-3.337H131z"
              fill="#6d6e71"/>
    </g>
    <defs>
        <clipPath id="A">
            <path fill="#fff" d="M0 0h131v45H0z"/>
        </clipPath>
    </defs>
</svg>
